<svg xmlns="http://www.w3.org/2000/svg" version="1" viewBox="0 0 1118 570">
  <g fill="none" fill-rule="evenodd" stroke="rgba(255, 255, 255, 0.08)" stroke-width="2">
    <path d="M100 414l56 56-21 78-77 20-56-56 21-77zM234 253l9 18-11 16-20-1-8-18 10-16zM111 194l5 9-7 9-10-1-4-9 6-9zM66 336l10 11-6 14-14 2-9-11 6-14zM173 57l-13 33-35 5-22-28 13-32 36-5zM932 257l24 8 5 24-19 17-24-8-5-24zM1047 318l12 6v13l-10 7-12-5v-13zM1003 185l9 2 2 9-7 6-8-2-2-9zM1031 1l63 13 20 61-43 48-62-13-20-61zM1064 442l46 18 7 50-39 30-46-18-7-50z"/>
  </g>
</svg>
