<svg xmlns="http://www.w3.org/2000/svg" version="1" viewBox="0 0 1118 570">
  <g fill="none" fill-rule="evenodd" stroke="rgba(255, 255, 255, 0.08)" stroke-width="2">
    <path d="M100 414l56 56-21 78-77 20-56-56 21-77zM78 34l60 16 16 60-44 44-60-16-16-60zM261 194l9 18-11 16-20-1-8-18 10-16zM91 241l5 9-7 9-10-1-4-9 6-9zM182 336l10 11-6 14-14 2-9-11 6-14zM371 80l-13 33-35 5-22-28 13-32 36-5zM887 282l21 7 5 22-16 15-21-7-5-22zM806 83l25 6 8 26-18 20-27-7-8-26zM1020 323l12 5v13l-10 8-12-6v-13zM946 167l9 3 2 9-7 6-8-2-2-9zM1031 1l63 13 20 61-43 48-62-13-20-61zM1064 442l46 18 7 50-39 30-46-18-7-50z"/>
  </g>
</svg>
