<?xml version="1.0" standalone="no"?>
<!DOCTYPE svg PUBLIC "-//W3C//DTD SVG 20010904//EN"
 "http://www.w3.org/TR/2001/REC-SVG-20010904/DTD/svg10.dtd">
<svg version="1.0" xmlns="http://www.w3.org/2000/svg"
 width="584.000000pt" height="584.000000pt" viewBox="0 0 584.000000 584.000000"
 preserveAspectRatio="xMidYMid meet">
<metadata>
Created by potrace 1.11, written by Peter Selinger 2001-2013
</metadata>
<g transform="translate(0.000000,584.000000) scale(0.100000,-0.100000)"
fill="#000000" stroke="none">
<path d="M2853 5826 c-13 -6 -23 -14 -23 -18 0 -5 -4 -8 -9 -8 -12 0 -115 -63
-119 -72 -2 -5 -8 -8 -13 -8 -5 0 -45 -22 -89 -50 -44 -27 -84 -50 -90 -50 -5
0 -10 -4 -10 -9 0 -5 -8 -11 -17 -15 -10 -3 -27 -11 -38 -18 -82 -53 -102 -65
-115 -72 -8 -3 -38 -21 -67 -39 -29 -18 -89 -54 -135 -82 -46 -27 -84 -53 -86
-57 -2 -4 -8 -8 -13 -8 -6 0 -35 -16 -65 -35 -30 -19 -56 -35 -58 -35 -2 0
-58 -34 -125 -75 -66 -41 -125 -75 -130 -75 -5 0 -11 -3 -13 -8 -1 -4 -88 -59
-193 -122 -104 -63 -228 -138 -275 -167 -47 -29 -91 -56 -98 -59 -8 -4 -53
-31 -100 -60 -48 -30 -103 -63 -122 -74 -19 -11 -53 -31 -75 -45 -22 -13 -56
-34 -75 -45 -19 -11 -48 -29 -65 -40 -16 -11 -39 -24 -50 -30 -11 -5 -51 -29
-90 -53 l-70 -44 -3 -1445 -2 -1445 37 -25 c21 -13 45 -28 53 -32 8 -4 24 -12
35 -19 62 -38 423 -253 441 -263 11 -6 51 -30 90 -53 38 -23 76 -46 84 -51
132 -80 220 -130 229 -130 6 0 11 -3 11 -7 0 -5 29 -24 65 -43 36 -19 65 -38
65 -42 0 -5 4 -8 10 -8 10 0 264 -147 312 -181 15 -10 29 -19 31 -19 3 0 57
-31 121 -70 65 -38 121 -70 126 -70 4 0 10 -4 12 -8 2 -4 23 -19 48 -33 110
-62 126 -72 141 -85 8 -8 18 -14 21 -14 5 0 149 -84 243 -141 17 -11 41 -24
55 -31 14 -7 27 -15 30 -19 3 -3 36 -23 73 -45 38 -21 82 -47 99 -57 29 -17
29 -17 111 25 45 24 84 45 87 48 3 3 97 55 210 115 113 59 222 119 243 132 20
13 37 21 37 17 0 -3 12 3 28 14 15 10 81 47 147 82 66 35 135 72 154 83 19 10
58 30 85 45 28 14 63 34 79 44 15 11 27 17 27 13 0 -3 17 6 37 20 21 14 41 25
45 25 4 0 16 7 25 15 17 14 18 46 15 460 l-2 445 -163 -84 c-300 -155 -481
-248 -677 -348 -107 -55 -255 -132 -328 -170 l-133 -70 -27 19 c-15 9 -38 24
-52 33 -14 8 -52 31 -83 50 -32 19 -73 44 -92 55 -18 11 -109 66 -202 123 -92
56 -181 110 -198 120 -16 9 -32 20 -35 23 -3 3 -25 17 -50 31 -40 22 -277 166
-749 454 -84 52 -157 94 -162 94 -5 0 -9 438 -9 990 l0 989 22 12 c13 7 25 15
28 18 3 3 19 13 35 22 62 32 120 64 125 70 3 3 30 18 60 33 30 16 57 31 60 35
3 4 32 21 65 38 34 18 87 48 120 67 32 20 67 38 77 42 10 3 18 10 18 15 0 5 4
9 9 9 7 0 145 76 253 139 18 11 56 32 83 46 28 15 57 33 66 41 9 8 19 11 22 7
4 -3 7 -1 7 5 0 6 10 14 23 18 12 4 38 17 57 29 48 30 360 209 440 253 36 19
70 39 76 43 12 9 54 1 54 -11 0 -4 17 -15 38 -24 20 -8 66 -32 102 -52 36 -19
90 -49 120 -66 30 -16 61 -35 68 -40 6 -6 12 -8 12 -4 0 3 17 -4 38 -17 20
-13 85 -49 144 -80 59 -31 142 -76 185 -100 43 -23 101 -54 128 -67 28 -13 52
-27 55 -30 3 -4 37 -23 75 -42 39 -20 88 -46 110 -58 22 -12 73 -40 113 -61
l72 -39 0 449 0 449 -37 24 c-21 12 -49 30 -63 38 -27 16 -166 100 -228 138
-20 12 -54 32 -76 45 -21 12 -46 27 -55 32 -16 10 -366 221 -399 240 -9 6 -66
40 -125 75 -179 107 -320 190 -321 189 0 -1 -11 -6 -23 -13z"/>
<path d="M4586 4823 c-3 -4 -6 -886 -6 -1960 l0 -1954 33 18 c17 10 34 20 37
23 3 3 25 15 50 27 25 12 61 31 80 42 62 36 264 145 305 166 22 11 44 24 50
28 5 5 71 41 145 81 l135 72 0 1479 0 1478 -65 39 c-236 144 -451 275 -488
297 -24 14 -54 33 -67 41 -48 31 -118 70 -126 70 -5 0 -9 4 -9 9 0 5 -9 13
-20 16 -11 3 -26 13 -34 20 -7 8 -16 11 -20 8z"/>
</g>
</svg>
